<svg xmlns="http://www.w3.org/2000/svg" width="1200" height="320" viewBox="0 0 1200 320" role="img" aria-labelledby="title desc">
<title id="title">GitHub README Generator</title><desc id="desc">SWIR project banner for a Python Tkinter desktop Markdown README builder.</desc>
<defs><linearGradient id="bg" x1="0" y1="0" x2="1" y2="1"><stop stop-color="#02050A"/><stop offset=".55" stop-color="#06101A"/><stop offset="1" stop-color="#02050A"/></linearGradient><linearGradient id="cyan" x1="0" y1="0" x2="1" y2="0"><stop stop-color="#0088FF"/><stop offset=".5" stop-color="#62E5FF"/><stop offset="1" stop-color="#0088FF"/></linearGradient><pattern id="grid" width="40" height="40" patternUnits="userSpaceOnUse"><path d="M40 0H0V40" fill="none" stroke="#62E5FF" stroke-opacity=".055"/></pattern></defs>
<rect width="1200" height="320" rx="26" fill="url(#bg)"/><rect x="1" y="1" width="1198" height="318" rx="25" fill="none" stroke="#62E5FF" stroke-opacity=".25"/><rect width="1200" height="320" rx="26" fill="url(#grid)"/>
<g transform="translate(72 70)"><rect width="160" height="160" rx="32" fill="#07111C" stroke="#62E5FF" stroke-opacity=".45"/><path d="M43 31h50l24 24v76H43z" fill="none" stroke="url(#cyan)" stroke-width="7"/><path d="M93 31v29h29M60 80l15 16 15-16M75 96v25M99 80h16l10 41" fill="none" stroke="#62E5FF" stroke-width="6" stroke-linecap="round" stroke-linejoin="round"/></g>
<text x="275" y="70" font-family="Segoe UI,Arial,sans-serif" font-size="18" font-weight="700" letter-spacing="4" fill="#62E5FF">SWIR PROJECT</text><text x="275" y="143" font-family="Segoe UI,Arial,sans-serif" font-size="52" font-weight="800" fill="#F4FAFF">GitHub README Generator</text><text x="277" y="190" font-family="Segoe UI,Arial,sans-serif" font-size="23" font-weight="500" fill="#B8D2E0">Build Markdown READMEs from a simple desktop GUI</text><text x="277" y="232" font-family="Segoe UI,Arial,sans-serif" font-size="16" font-weight="650" letter-spacing="1.5" fill="#62E5FF">PYTHON · TKINTER · MARKDOWN · WINDOWS RELEASE</text>
<path d="M0 266 C180 220 260 304 448 260 S760 220 930 254 S1080 283 1200 235" fill="none" stroke="url(#cyan)" stroke-opacity=".24" stroke-width="2"/>
</svg>